<svg width="181" height="181" viewBox="0 0 181 181" fill="none" xmlns="http://www.w3.org/2000/svg">
<path d="M181 90.5C181 140.482 140.482 181 90.5 181C40.5182 181 0 140.482 0 90.5C0 40.5182 40.5182 0 90.5 0C140.482 0 181 40.5182 181 90.5Z" fill="#D543A2"/>
<path d="M151.47 93.8377C150.995 97.6725 153.101 100.011 156.918 100.485C160.734 100.958 163.35 99.1851 163.823 95.3688L164.401 90.7043L152.048 89.1733L151.47 93.8377ZM162.011 94.8822C161.693 97.4448 160.284 98.6929 157.187 98.309C154.09 97.9251 153.028 96.3708 153.344 93.8266L153.634 91.4852L162.299 92.5592L162.011 94.8822Z" fill="white"/>
<path d="M149.551 106.379L154.06 108.109L153.514 109.532C153.095 110.624 152.591 111.107 151.644 111.242L147.42 111.929L146.555 114.183L150.661 113.491C151.549 113.354 152.163 113.052 152.637 112.439C152.146 114.34 152.779 116.114 154.721 116.86C157.115 117.779 159.008 116.475 159.913 114.117L161.923 108.879L150.303 104.419L149.551 106.379ZM158.252 113.26C157.779 114.492 156.922 115.377 155.448 114.811C154.043 114.272 153.998 113.04 154.471 111.809L155.656 108.722L159.437 110.173L158.252 113.26Z" fill="white"/>
<path d="M144.552 119.094L146.453 121.861L143.454 126.18L140.197 125.366L138.883 127.258L151.883 130.359L153.261 128.376L145.813 117.278L144.552 119.094ZM149.587 126.435L151.052 128.267L148.824 127.534L145.342 126.654L147.556 123.464L149.587 126.435Z" fill="white"/>
<path d="M133.377 133.332C131.296 135.157 131.444 137.721 133.224 139.891L129.704 136.751L128.698 137.633L132.949 142.48L137.223 138.731L136.059 137.405L133.363 139.769C132.559 138.176 132.51 136.711 134.089 135.327C135.932 133.71 138.016 134.255 139.756 136.238C141.458 138.18 141.765 140.332 139.809 142.047C138.301 143.37 136.599 143.232 135.266 142.276L134.755 144.454C136.879 145.581 139.165 145.257 141.134 143.529C144.039 140.982 143.845 137.52 141.432 134.768C138.822 131.793 135.779 131.225 133.377 133.332Z" fill="white"/>
<path d="M112.693 146.898L116.226 156.88L112.618 158.157L113.238 159.908L122.415 156.66L121.795 154.909L118.205 156.18L114.672 146.197L112.693 146.898Z" fill="white"/>
<path d="M99.6691 150.26C96.0462 150.624 93.8501 153.665 94.2107 157.251C94.5696 160.818 97.3272 163.36 100.95 162.996C104.592 162.629 106.769 159.591 106.41 156.024C106.05 152.438 103.311 149.894 99.6691 150.26ZM99.8514 152.258C102.439 151.998 103.952 153.676 104.211 156.245C104.467 158.796 103.321 160.759 100.733 161.02C98.1449 161.28 96.6485 159.582 96.3919 157.031C96.1335 154.462 97.2636 152.519 99.8514 152.258Z" fill="white"/>
<path d="M74.3603 148.945L66.3473 159.501L68.5312 160.174L73.0302 153.959L74.9909 150.811L74.8235 154.511L75.0472 162.18L77.3376 162.885L76.6507 149.65L74.3603 148.945Z" fill="white"/>
<path d="M63.5367 144.864L57.6458 155.828L59.4951 156.822L65.386 145.857L63.5367 144.864Z" fill="white"/>
<path d="M51.0011 136.623L49.8331 138.067L55.0481 142.284L52.8054 145.058L48.486 141.565L47.3179 143.01L51.6373 146.502L49.5581 149.073L44.3431 144.857L43.1751 146.301L50.0225 151.838L57.8485 142.159L51.0011 136.623Z" fill="white"/>
<path d="M44.2365 130.31L37.093 133.015L33.8521 134.461L36.2449 131.84L41.0832 125.942L39.5392 123.803L27.5223 128.422L28.9141 130.35L35.7565 127.45L38.9405 125.862L36.6122 128.413L31.7521 134.281L33.3396 136.481L40.4613 133.745L43.6269 132.354L41.1061 134.861L36.1775 140.412L37.591 142.37L45.7805 132.449L44.2365 130.31Z" fill="white"/>
<path d="M27.1609 106.458L25.6097 106.841L26.7265 111.368L28.2776 110.985L27.1609 106.458Z" fill="white"/>
<path d="M29.3481 86.9031C29.7792 83.0631 27.6461 80.7486 23.8246 80.3196C20.003 79.8906 17.4078 81.6931 16.9789 85.5146L16.4545 90.1854L28.8238 91.5739L29.3481 86.9031ZM18.796 85.9803C19.0841 83.4142 20.4785 82.1499 23.5801 82.4981C26.6816 82.8463 27.761 84.3882 27.475 86.9359L27.2118 89.2805L18.5349 88.3065L18.796 85.9803Z" fill="white"/>
<path d="M31.1485 74.18L26.6262 72.4831L27.1614 71.0568C27.5725 69.961 28.0727 69.4741 29.0186 69.3329L33.237 68.6141L34.0854 66.3529L29.9845 67.0762C29.0973 67.2195 28.4862 67.526 28.0165 68.1434C28.493 66.2387 27.8476 64.4687 25.8995 63.7377C23.4992 62.8371 21.616 64.1544 20.7284 66.5199L18.7574 71.7727L30.411 76.1454L31.1485 74.18ZM22.396 67.3639C22.8593 66.1289 23.7097 65.2376 25.1881 65.7924C26.597 66.321 26.6511 67.5517 26.1877 68.7866L25.026 71.8826L21.2342 70.4599L22.396 67.3639Z" fill="white"/>
<path d="M35.8582 61.7059L33.9272 58.9596L36.8783 54.6085L40.1441 55.3869L41.4371 53.4804L28.4039 50.5218L27.0483 52.5205L34.6172 63.5355L35.8582 61.7059ZM30.743 54.4204L29.2581 52.6051L31.4939 53.3134L34.9858 54.1554L32.8063 57.3688L30.743 54.4204Z" fill="white"/>
<path d="M46.8497 47.2935C48.9107 45.4457 48.7348 42.8839 46.9314 40.7332L50.4852 43.8345L51.4812 42.9416L47.178 38.1418L42.9452 41.9365L44.1233 43.2506L46.793 40.8572C47.6143 42.4412 47.6792 43.9051 46.1161 45.3064C44.2902 46.9433 42.2006 46.4215 40.4396 44.4573C38.7159 42.5345 38.3859 40.3853 40.3224 38.6491C41.8163 37.3098 43.5201 37.4291 44.8632 38.3707L45.3507 36.1871C43.2139 35.0838 40.9321 35.4329 38.9817 37.1815C36.1045 39.7609 36.3367 43.2204 38.7797 45.9454C41.4212 48.8917 44.4705 49.4265 46.8497 47.2935Z" fill="white"/>
<path d="M67.5621 33.3426L63.954 23.3871L67.5519 22.0831L66.9189 20.3365L57.7668 23.6534L58.3998 25.4L61.9803 24.1024L65.5885 34.0579L67.5621 33.3426Z" fill="white"/>
<path d="M80.5233 29.8405C84.1433 29.4482 86.316 26.3912 85.9277 22.8081C85.5415 19.2435 82.7644 16.7228 79.1443 17.1151C75.5059 17.5093 73.3516 20.5644 73.7379 24.129C74.1262 27.7121 76.8848 30.2348 80.5233 29.8405ZM80.3256 27.8438C77.7399 28.124 76.214 26.4581 75.9358 23.8908C75.6596 21.3421 76.7912 19.3695 79.377 19.0893C81.9627 18.8091 83.4722 20.4955 83.7483 23.0443C84.0265 25.6115 82.9113 27.5636 80.3256 27.8438Z" fill="white"/>
<path d="M105.724 30.843L113.657 20.2264L111.469 19.5705L107.017 25.8193L105.08 28.9819L105.219 25.2807L104.938 17.6133L102.642 16.9254L103.429 30.1551L105.724 30.843Z" fill="white"/>
<path d="M116.639 34.7973L122.449 23.7894L120.592 22.8096L114.783 33.8175L116.639 34.7973Z" fill="white"/>
<path d="M129.274 42.9015L130.432 41.4485L125.186 37.2698L127.408 34.4799L131.753 37.9409L132.911 36.4878L128.566 33.0269L130.626 30.4404L135.872 34.619L137.029 33.1659L130.142 27.6793L122.387 37.4149L129.274 42.9015Z" fill="white"/>
<path d="M136.188 49.1697L143.311 46.4127L146.542 44.9432L144.168 47.5814L139.373 53.5149L140.932 55.6425L152.915 50.9359L151.509 49.0181L144.688 51.9679L141.516 53.5792L143.826 51.011L148.643 45.1074L147.039 42.9199L139.938 45.7069L136.782 47.1215L139.285 44.5962L144.173 39.0092L142.745 37.0614L134.628 47.0421L136.188 49.1697Z" fill="white"/>
<path d="M153.559 73.018L155.107 72.6236L153.956 68.105L152.408 68.4994L153.559 73.018Z" fill="white"/>
<g clip-path="url(#clip0_413_270)">
<path fill-rule="evenodd" clip-rule="evenodd" d="M76.0172 78.8245C76.8332 76.6877 77.2532 74.3974 77.2532 72.0846H79.8863C79.8863 82.4081 72.9029 88.9789 63.8663 90.1155C72.9029 91.2521 79.8863 97.823 79.8863 108.146H77.2532C77.2532 105.834 76.8332 103.543 76.0172 101.407C75.2012 99.2698 74.0052 97.3283 72.4974 95.6929C70.9896 94.0574 69.1996 92.7601 67.2296 91.875C65.2596 90.9899 63.1481 90.5344 61.0158 90.5344V90.292V89.9391V89.6967C63.1481 89.6967 65.2596 89.2411 67.2296 88.3561C69.1996 87.471 70.9896 86.1737 72.4974 84.5382C74.0052 82.9028 75.2012 80.9613 76.0172 78.8245Z" fill="white"/>
</g>
<g clip-path="url(#clip1_413_270)">
<path fill-rule="evenodd" clip-rule="evenodd" d="M105.394 78.8245C104.578 76.6877 104.158 74.3974 104.158 72.0846H101.525C101.525 82.4081 108.508 88.9789 117.545 90.1155C108.508 91.2521 101.525 97.823 101.525 108.146H104.158C104.158 105.834 104.578 103.543 105.394 101.407C106.21 99.2698 107.406 97.3283 108.914 95.6929C110.422 94.0574 112.212 92.7601 114.182 91.875C116.152 90.9899 118.263 90.5344 120.396 90.5344V90.292V89.9391V89.6967C118.263 89.6967 116.152 89.2411 114.182 88.3561C112.212 87.471 110.422 86.1737 108.914 84.5382C107.406 82.9028 106.21 80.9613 105.394 78.8245Z" fill="white"/>
</g>
<defs>
<clipPath id="clip0_413_270">
<rect width="19.7455" height="32.9091" fill="white" transform="matrix(-1 0 0 1 80.4216 74.0454)"/>
</clipPath>
<clipPath id="clip1_413_270">
<rect width="19.7455" height="32.9091" fill="white" transform="translate(100.99 74.0454)"/>
</clipPath>
</defs>
</svg>
