<svg width="20" height="14" viewBox="0 0 20 14" fill="none" xmlns="http://www.w3.org/2000/svg">
<path fill-rule="evenodd" clip-rule="evenodd" d="M3.81586 0.798358H16.1627C16.8608 0.779839 17.5435 1.015 18.0955 1.46403L17.392 1.94298L9.96609 6.95985L8.03327 5.64069C7.99345 5.60086 7.946 5.57042 7.89411 5.55139L2.58272 1.93892L1.88304 1.46403C2.42684 0.998921 3.11536 0.761777 3.81586 0.798358ZM1.39609 2.08911L2.04939 2.5356L7.1559 6.02224L2.09577 11.5424L1.54685 12.1391C1.16546 11.5799 0.96493 10.9069 0.974739 10.2192L0.978605 3.76952C0.973145 3.18036 1.11724 2.60034 1.39609 2.08911ZM17.3457 12.0908L12.1851 6.47316L10.2136 7.81262L10.1479 7.84509H10.117C10.0849 7.84935 10.0524 7.84935 10.0203 7.84509C9.98825 7.84935 9.95578 7.84935 9.92369 7.84509H9.89277L9.79999 7.81262L7.84398 6.48128L2.65629 12.107L2.09964 12.7118C2.61019 13.0566 3.20942 13.228 3.81598 13.2029H16.186C16.7902 13.207 17.3825 13.0264 17.8908 12.6834L17.3457 12.0908ZM19.0233 3.78177V10.2193C19.0492 10.9056 18.853 11.5808 18.4667 12.1351L17.9139 11.5303L12.8576 6.00607L17.9603 2.53567L18.6174 2.09324C18.9 2.60533 19.0406 3.19018 19.0233 3.78177Z" fill="white"/>
</svg>
