<svg width="42" height="17" viewBox="0 0 42 17" fill="none" xmlns="http://www.w3.org/2000/svg">
<g clip-path="url(#clip0_501_865)">
<path d="M19.8641 2.49717V6.79316H22.4612C23.0798 6.79316 23.5912 6.58155 23.9953 6.15712C24.4113 5.73389 24.6187 5.22891 24.6187 4.64457C24.6187 4.06023 24.4113 3.57327 23.9953 3.14885C23.59 2.7136 23.0786 2.49597 22.4612 2.49597H19.8641V2.49717ZM19.8641 8.30692V13.2907H18.3135V0.984619H22.427C23.4722 0.984619 24.3583 1.34051 25.09 2.0499C25.8335 2.75928 26.2035 3.62498 26.2035 4.64457C26.2035 5.66416 25.8335 6.55871 25.09 7.25607C24.3712 7.95583 23.4828 8.30451 22.427 8.30451H19.8641V8.30692Z" fill="white"/>
<path d="M27.7703 10.7103C27.7703 11.1239 27.9411 11.4666 28.2852 11.7419C28.6281 12.0161 29.0299 12.1543 29.4906 12.1543C30.1434 12.1543 30.7231 11.9079 31.2345 11.4161C31.7459 10.9231 32.0016 10.3448 32.0016 9.68111C31.5185 9.29035 30.8433 9.09677 29.9785 9.09677C29.3492 9.09677 28.8237 9.25187 28.403 9.56088C27.9824 9.86988 27.7703 10.2522 27.7703 10.7103ZM29.777 4.59277C30.9235 4.59277 31.8284 4.90418 32.4918 5.5294C33.1552 6.15462 33.4851 7.00949 33.4851 8.09762V13.2882H32.0016V12.1195H31.9345C31.2935 13.0814 30.4404 13.5623 29.3728 13.5623C28.462 13.5623 27.6996 13.2882 27.088 12.7387C26.4753 12.188 26.1689 11.5015 26.1689 10.6755C26.1689 9.80495 26.4906 9.1124 27.1375 8.5978C27.7844 8.08199 28.647 7.82469 29.7251 7.82469C30.6466 7.82469 31.4054 7.99662 32.0004 8.34049V7.97979C32.0004 7.43032 31.7872 6.9638 31.3606 6.58025C30.9329 6.1955 30.4345 6.00433 29.8606 6.00433C28.9946 6.00433 28.31 6.37586 27.8045 7.12131L26.4376 6.2448C27.1917 5.14465 28.3041 4.59518 29.777 4.59518" fill="white"/>
<path d="M42.0005 4.86816L36.8241 16.9999H35.2228L37.1446 12.7556L33.7393 4.86816H35.4254L37.8869 10.9172H37.9199L40.3143 4.86816H42.0005Z" fill="white"/>
<path d="M13.5964 7.23098C13.5964 6.7332 13.5551 6.25227 13.4774 5.79297H6.93652V8.51629H10.6824C10.5221 9.40362 10.0355 10.1587 9.29788 10.6649V12.4335H11.5343C12.8434 11.2023 13.5976 9.38318 13.5976 7.23218" fill="#4285F4"/>
<path d="M6.93604 14.1407C8.80839 14.1407 10.3838 13.5143 11.5338 12.4334L9.29739 10.6648C8.67524 11.0916 7.87398 11.3417 6.93604 11.3417C5.12732 11.3417 3.59197 10.0985 3.04169 8.42358H0.739258V10.2451C1.88105 12.5549 4.22708 14.142 6.93722 14.142" fill="#34A853"/>
<path d="M3.04242 8.42235C2.9022 7.99551 2.82443 7.53982 2.82443 7.06971C2.82443 6.59959 2.90102 6.1439 3.04242 5.71706V3.89551H0.738806C0.2663 4.85017 0 5.92748 0 7.06971C0 8.21194 0.2663 9.29044 0.738806 10.2439L3.04242 8.42235Z" fill="#FABB05"/>
<path d="M6.93604 2.79786C7.95764 2.79786 8.87437 3.15616 9.59668 3.85834L11.5763 1.8408C10.3744 0.700969 8.80721 0 6.93604 0C4.22708 0 1.88105 1.5859 0.739258 3.89561L3.04287 5.71716C3.59197 4.04229 5.12732 2.79907 6.93721 2.79907" fill="#E94235"/>
</g>
<defs>
<clipPath id="clip0_501_865">
<rect width="42" height="17" fill="white"/>
</clipPath>
</defs>
</svg>
