<svg width="33" height="33" viewBox="0 0 33 33" fill="none" xmlns="http://www.w3.org/2000/svg">
<path fill-rule="evenodd" clip-rule="evenodd" d="M17.4187 -1.00952C17.4187 1.15885 17.8057 3.30599 18.5577 5.30931C19.3096 7.31263 20.4118 9.13289 21.8012 10.6662C23.1906 12.1994 24.8401 13.4157 26.6555 14.2455C28.4709 15.0753 30.4166 15.5024 32.3815 15.5024L32.3815 15.5724L32.3816 15.5724L32.3816 17.9457L32.3815 17.9457L32.3815 18.0157C30.4166 18.0157 28.4709 18.4428 26.6555 19.2726C24.8401 20.1024 23.1906 21.3187 21.8012 22.8519C20.4118 24.3852 19.3096 26.2055 18.5577 28.2088C17.8057 30.2121 17.4187 32.3592 17.4187 34.5276L14.9923 34.5276C14.9923 25.5707 20.5036 19.6269 27.9254 17.9457L0.737135 17.9457L0.737134 15.5724L27.9255 15.5724C20.5036 13.8913 14.9923 7.94743 14.9923 -1.00952L17.4187 -1.00952Z" fill="white"/>
</svg>
