<svg width="33" height="33" viewBox="0 0 33 33" fill="none" xmlns="http://www.w3.org/2000/svg">
<path fill-rule="evenodd" clip-rule="evenodd" d="M15.5813 34.0095C15.5813 31.8411 15.1943 29.694 14.4423 27.6907C13.6904 25.6874 12.5882 23.8671 11.1988 22.3338C9.80936 20.8006 8.15987 19.5843 6.3445 18.7545C4.52912 17.9247 2.58341 17.4976 0.618462 17.4976V17.4276H0.618414V15.0543H0.618462V14.9843C2.58341 14.9843 4.52912 14.5572 6.3445 13.7274C8.15987 12.8976 9.80936 11.6813 11.1988 10.1481C12.5882 8.6148 13.6904 6.79454 14.4423 4.79123C15.1943 2.78791 15.5813 0.640768 15.5813 -1.5276H18.0077C18.0077 7.42927 12.4964 13.3731 5.07462 15.0543L32.2629 15.0543L32.2629 17.4276L5.07444 17.4276C12.4963 19.1087 18.0077 25.0526 18.0077 34.0095H15.5813Z" fill="#5E43DA" fill-opacity="0.5"/>
</svg>
