<svg width="22" height="22" viewBox="0 0 22 22" fill="none" xmlns="http://www.w3.org/2000/svg">
<path d="M11 0.4375C8.91094 0.4375 6.86879 1.05698 5.13179 2.2176C3.3948 3.37822 2.04098 5.02786 1.24153 6.95791C0.442077 8.88795 0.232904 11.0117 0.64046 13.0606C1.04802 15.1096 2.054 16.9916 3.53119 18.4688C5.00838 19.946 6.89044 20.952 8.93936 21.3595C10.9883 21.7671 13.1121 21.5579 15.0421 20.7585C16.9721 19.959 18.6218 18.6052 19.7824 16.8682C20.943 15.1312 21.5625 13.0891 21.5625 11C21.5595 8.19956 20.4458 5.51466 18.4656 3.53445C16.4853 1.55424 13.8004 0.440457 11 0.4375ZM15.6373 9.13734L9.94985 14.8248C9.87439 14.9004 9.78478 14.9603 9.68614 15.0012C9.58751 15.0421 9.48178 15.0631 9.375 15.0631C9.26823 15.0631 9.1625 15.0421 9.06386 15.0012C8.96523 14.9603 8.87562 14.9004 8.80016 14.8248L6.36266 12.3873C6.2102 12.2349 6.12455 12.0281 6.12455 11.8125C6.12455 11.5969 6.2102 11.3901 6.36266 11.2377C6.51512 11.0852 6.7219 10.9995 6.9375 10.9995C7.15311 10.9995 7.35989 11.0852 7.51235 11.2377L9.375 13.1013L14.4877 7.98766C14.5631 7.91217 14.6528 7.85228 14.7514 7.81143C14.85 7.77058 14.9557 7.74955 15.0625 7.74955C15.1693 7.74955 15.275 7.77058 15.3736 7.81143C15.4722 7.85228 15.5619 7.91217 15.6373 7.98766C15.7128 8.06314 15.7727 8.15276 15.8136 8.2514C15.8544 8.35003 15.8755 8.45574 15.8755 8.5625C15.8755 8.66926 15.8544 8.77497 15.8136 8.8736C15.7727 8.97223 15.7128 9.06185 15.6373 9.13734Z" fill="#5E43DA"/>
</svg>
