<svg width="226" height="173" viewBox="0 0 226 173" fill="none" xmlns="http://www.w3.org/2000/svg">
<path d="M5.83551 172.742L40.4105 52.882L52.8575 102.67C37.4908 102.67 24.8902 98.2137 15.0555 89.301C5.22084 80.081 0.303508 67.7876 0.303508 52.421C0.303508 36.747 5.22084 24.3 15.0555 15.08C25.1975 5.55265 37.7982 0.788978 52.8575 0.788978C67.9168 0.788978 80.3638 5.55265 90.1985 15.08C100.033 24.3 104.951 36.747 104.951 52.421C104.951 56.7237 104.643 61.18 104.029 65.79C103.414 70.0927 102.031 75.3173 99.8795 81.464C98.0355 87.3033 94.8085 95.294 90.1985 105.436L60.6945 172.742H5.83551ZM126.618 172.742L161.193 52.882L173.64 102.67C158.273 102.67 145.672 98.2137 135.838 89.301C126.003 80.081 121.086 67.7876 121.086 52.421C121.086 36.747 126.003 24.3 135.838 15.08C145.98 5.55265 158.58 0.788978 173.64 0.788978C188.699 0.788978 201.146 5.55265 210.981 15.08C220.815 24.3 225.733 36.747 225.733 52.421C225.733 56.7237 225.425 61.18 224.811 65.79C224.196 70.0927 222.813 75.3173 220.662 81.464C218.818 87.3033 215.591 95.294 210.981 105.436L181.477 172.742H126.618Z" fill="url(#paint0_linear_413_299)" fill-opacity="0.14"/>
<defs>
<linearGradient id="paint0_linear_413_299" x1="113" y1="-49" x2="113" y2="236" gradientUnits="userSpaceOnUse">
<stop stop-color="#5E43DA" stop-opacity="0.5"/>
<stop offset="1" stop-color="#5E43DA" stop-opacity="0"/>
<stop offset="1" stop-color="#5E43DA" stop-opacity="0.1"/>
</linearGradient>
</defs>
</svg>
