<svg width="21" height="32" viewBox="0 0 21 32" fill="none" xmlns="http://www.w3.org/2000/svg">
<path d="M17.3269 12.7391C17.2796 12.8533 17.1995 12.9509 17.0967 13.0196C16.994 13.0883 16.8731 13.125 16.7495 13.125H4.24952C4.12583 13.1251 4.0049 13.0885 3.90203 13.0198C3.79916 12.9512 3.71897 12.8535 3.67163 12.7392C3.62428 12.625 3.6119 12.4992 3.63606 12.3779C3.66022 12.2566 3.71982 12.1452 3.80733 12.0578L10.0573 5.80782C10.1154 5.74971 10.1843 5.70361 10.2602 5.67215C10.3361 5.6407 10.4174 5.62451 10.4995 5.62451C10.5817 5.62451 10.663 5.6407 10.7389 5.67215C10.8147 5.70361 10.8837 5.74971 10.9417 5.80782L17.1917 12.0578C17.2791 12.1453 17.3386 12.2567 17.3626 12.3779C17.3867 12.4992 17.3742 12.6249 17.3269 12.7391Z" fill="white"/>
<path d="M3.67314 19.2609C3.72042 19.1467 3.80051 19.0491 3.90328 18.9804C4.00604 18.9117 4.12687 18.875 4.25049 18.875L16.7505 18.875C16.8742 18.8749 16.9951 18.9115 17.098 18.9802C17.2008 19.0488 17.281 19.1465 17.3284 19.2608C17.3757 19.375 17.3881 19.5008 17.3639 19.6221C17.3398 19.7434 17.2802 19.8548 17.1927 19.9422L10.9427 26.1922C10.8846 26.2503 10.8157 26.2964 10.7398 26.3278C10.6639 26.3593 10.5826 26.3755 10.5005 26.3755C10.4183 26.3755 10.337 26.3593 10.2611 26.3278C10.1853 26.2964 10.1163 26.2503 10.0583 26.1922L3.8083 19.9422C3.72092 19.8547 3.66144 19.7433 3.63738 19.6221C3.61332 19.5008 3.62577 19.3751 3.67314 19.2609Z" fill="white"/>
</svg>
