<svg width="32" height="32" viewBox="0 0 32 32" fill="none" xmlns="http://www.w3.org/2000/svg">
<path fill-rule="evenodd" clip-rule="evenodd" d="M7.49141 4.80005C6.00588 4.80005 4.80078 6.00316 4.80078 7.48869C4.80078 8.97421 6.00491 10.2052 7.48942 10.2052C8.97393 10.2052 10.18 8.97421 10.18 7.48869C10.18 6.00418 8.97693 4.80005 7.49141 4.80005ZM20.6184 11.9273C18.359 11.9273 17.0663 13.1089 16.4462 14.2839H16.3806V12.2435H11.9281V27.2001H16.5675V19.7964C16.5675 17.8455 16.7148 15.9603 19.1289 15.9603C21.5084 15.9603 21.5431 18.1847 21.5431 19.9197V27.2001H26.1766H26.1826V18.985C26.1826 14.9652 25.3183 11.9273 20.6184 11.9273ZM5.17067 12.2435V27.2H9.81413V12.2435H5.17067Z" fill="white"/>
</svg>
