<svg width="32" height="32" viewBox="0 0 32 32" fill="none" xmlns="http://www.w3.org/2000/svg">
<path fill-rule="evenodd" clip-rule="evenodd" d="M7.78988 8.00491H24.2517C25.1824 7.98022 26.0927 8.29376 26.8287 8.89243L25.8906 9.53101L15.9898 16.2199L13.4129 14.4611C13.3598 14.408 13.2965 14.3674 13.2273 14.342L6.14576 9.5256L5.21289 8.89243C5.93793 8.27231 6.85591 7.95613 7.78988 8.00491ZM4.56419 9.72601L5.43522 10.3213L12.2436 14.97L5.49706 22.3299L4.7652 23.1254C4.2567 22.3798 3.98933 21.4826 4.00241 20.5657L4.00757 11.9665C4.00029 11.181 4.1924 10.4076 4.56419 9.72601ZM25.8292 23.0609L18.9487 15.571L16.3201 17.3569L16.2325 17.4002H16.1913C16.1485 17.4059 16.1052 17.4059 16.0624 17.4002C16.0197 17.4059 15.9764 17.4059 15.9336 17.4002H15.8924L15.7687 17.3569L13.1608 15.5819L6.24413 23.0825L5.50195 23.8889C6.18266 24.3486 6.98159 24.5772 7.79032 24.5437H24.283C25.0886 24.5491 25.8783 24.3084 26.5559 23.851L25.8292 23.0609ZM28.0663 11.9827V20.5657C28.1008 21.4808 27.8392 22.3811 27.3241 23.12L26.5871 22.3137L19.8457 14.9483L26.6489 10.3213L27.5251 9.73145C27.9019 10.4142 28.0893 11.194 28.0663 11.9827Z" fill="white"/>
</svg>
