<svg width="54" height="54" viewBox="0 0 54 54" fill="none" xmlns="http://www.w3.org/2000/svg">
<g clip-path="url(#clip0_413_308)">
<path fill-rule="evenodd" clip-rule="evenodd" d="M25.4324 44.8606C25.4324 42.6922 25.0454 40.5451 24.2934 38.5418C23.5415 36.5384 22.4393 34.7182 21.0499 33.1849C19.6605 31.6516 18.011 30.4354 16.1956 29.6056C14.3802 28.7758 12.4345 28.3487 10.4696 28.3487V28.2787H10.4695V25.9053H10.4696V25.8354C12.4345 25.8354 14.3802 25.4083 16.1956 24.5785C18.011 23.7487 19.6605 22.5324 21.0499 20.9992C22.4393 19.4659 23.5415 17.6456 24.2934 15.6423C25.0454 13.639 25.4324 11.4918 25.4324 9.32347H27.8588C27.8588 18.2803 22.3475 24.2242 14.9257 25.9053L42.114 25.9053L42.114 28.2787L14.9256 28.2787C22.3475 29.9598 27.8588 35.9036 27.8588 44.8606H25.4324Z" fill="white"/>
</g>
<defs>
<clipPath id="clip0_413_308">
<rect width="31.6444" height="31.6444" fill="white" transform="matrix(-1 0 0 -1 42.114 42.9146)"/>
</clipPath>
</defs>
</svg>
