<svg width="18" height="18" viewBox="0 0 18 18" fill="none" xmlns="http://www.w3.org/2000/svg">
<path d="M18 5.48009V5.16008C18 3.72009 16.88 2.6001 15.44 2.6001H2.64001C1.19998 2.60006 0 3.72009 0 5.16008V5.48009H18Z" fill="white"/>
<path d="M0 6.28003V12.76C0 14.28 1.19998 15.4001 2.64001 15.4001H15.44C16.88 15.4001 18 14.2801 18 12.8401V6.36002H0V6.28003ZM4.95999 13.08H2.15999C1.91998 13.08 1.76 12.9201 1.76 12.68C1.76 12.44 1.91998 12.2801 2.15999 12.2801H4.95999C5.2 12.2801 5.35998 12.44 5.35998 12.68C5.35998 12.9201 5.12001 13.08 4.95999 13.08Z" fill="white"/>
</svg>
