<svg width="21" height="20" viewBox="0 0 21 20" fill="none" xmlns="http://www.w3.org/2000/svg">
<path fill-rule="evenodd" clip-rule="evenodd" d="M10.282 19.5581C4.83009 19.5581 0.410217 15.2722 0.410217 9.98415C0.410217 4.69605 4.83009 0.410156 10.282 0.410156C12.8491 0.410156 15.1868 1.3613 16.9423 2.91888L14.0329 5.68166C13.0203 4.85053 11.7121 4.34878 10.282 4.34878C7.07309 4.34878 4.47096 6.87155 4.47096 9.98415C4.47096 13.0967 7.07309 15.6195 10.282 15.6195C12.7649 15.6195 14.8834 14.1092 15.7158 11.9835H10.1575V7.98483H15.7158H19.9049H19.9386C20.0799 8.62957 20.1538 9.29856 20.1538 9.98415C20.1538 15.2722 15.7339 19.5581 10.282 19.5581Z" fill="white"/>
</svg>
