<svg width="172" height="60" viewBox="0 0 172 60" fill="none" xmlns="http://www.w3.org/2000/svg">
<rect width="172" height="60" rx="9.06435" fill="#090909"/>
<rect x="16" y="14" width="31" height="31" rx="11.9941" fill="url(#paint0_angular_413_458)"/>
<path fill-rule="evenodd" clip-rule="evenodd" d="M35.421 25.6752L35.3587 25.3983C35.3587 22.973 33.4033 21 30.9999 21C28.5966 21 26.6414 22.973 26.6414 25.3983L26.579 25.6752H23L23.9647 34.7525C24.1579 36.5988 25.7007 38 27.5403 38H34.4597C36.2992 38 37.842 36.5988 38.0352 34.7527L39 25.6752H35.421ZM28.4737 25.6752L28.544 25.3983C28.544 24.0317 29.6457 22.9199 30.9999 22.9199C32.3544 22.9199 33.4561 24.0317 33.4561 25.3983L33.5263 25.6752H28.4737Z" fill="white"/>
<path d="M77.7952 28.4402H79.9553V40.5718H77.7952V28.4402Z" fill="white"/>
<path d="M54 34.5901C54 31.1805 56.4932 28.4425 59.9233 28.4425C62.3215 28.4425 64.2114 29.7048 65.1958 31.508L63.2902 32.6885C62.5756 31.3279 61.4641 30.6064 59.9393 30.6064C57.7795 30.6064 56.1437 32.4096 56.1437 34.5901C56.1437 36.8031 57.7638 38.5738 60.0186 38.5738C61.7497 38.5738 62.9568 37.5573 63.3694 35.9836H59.6695V33.8525H65.688V34.7379C65.688 37.967 63.4808 40.7381 60.0186 40.7381C56.3979 40.7381 54 37.9014 54 34.5901Z" fill="white"/>
<path d="M66.6747 35.7872C66.6747 32.6067 68.9298 30.7873 71.2802 30.7873C72.503 30.7873 73.5988 31.3116 74.2659 32.1314V30.9841H76.4096V40.5741H74.2659V39.3277C73.5828 40.2131 72.4713 40.7709 71.2484 40.7709C69.0091 40.7709 66.6747 38.918 66.6747 35.7872ZM74.3769 35.7544C74.3769 34.1314 73.1858 32.8035 71.5979 32.8035C70.0099 32.8035 68.787 34.0989 68.787 35.7544C68.787 37.4261 70.0099 38.7378 71.5979 38.7378C73.1858 38.7378 74.3769 37.4099 74.3769 35.7544Z" fill="white"/>
<path d="M81.0485 35.7872C81.0485 32.6067 83.3036 30.7873 85.6539 30.7873C86.8768 30.7873 87.9726 31.3116 88.6396 32.1314V30.9841H90.7834V40.5741H88.6396V39.3277C87.9568 40.2131 86.8453 40.7709 85.6222 40.7709C83.3831 40.7709 81.0485 38.918 81.0485 35.7872ZM88.751 35.7544C88.751 34.1314 87.5599 32.8035 85.9723 32.8035C84.3839 32.8035 83.1611 34.0989 83.1611 35.7544C83.1611 37.4261 84.3839 38.7378 85.9723 38.7378C87.5596 38.7378 88.751 37.4099 88.751 35.7544Z" fill="white"/>
<path d="M94.9621 35.6888L91.5955 30.9841H94.2161L96.3277 34.033L98.4243 30.9841H100.965L97.6298 35.7216L101.187 40.5741H98.5671L96.2963 37.3774L94.0887 40.5741H91.4682L94.9621 35.6888Z" fill="white"/>
<path d="M105.207 40.0985L101.395 30.9837H103.682L106.271 37.4427L108.716 30.9837H110.972L105.429 45H103.253L105.207 40.0985Z" fill="white"/>
<path d="M115.372 38.5904L117.341 36.9839C117.929 38.0167 118.834 38.6066 119.882 38.6066C121.026 38.6066 121.645 37.8369 121.645 37.0002C121.645 35.984 120.47 35.6726 119.231 35.2791C117.675 34.7707 115.944 34.148 115.944 31.8691C115.944 29.9513 117.564 28.4429 119.787 28.4429C121.661 28.4429 122.741 29.1808 123.678 30.1808L121.899 31.574C121.407 30.8201 120.724 30.4266 119.803 30.4266C118.755 30.4266 118.183 31.0168 118.183 31.7869C118.183 32.7379 119.295 33.0496 120.55 33.4759C122.122 34.0002 123.9 34.7216 123.9 37.0167C123.9 38.9017 122.439 40.7384 119.898 40.7384C117.802 40.7381 116.42 39.8196 115.372 38.5904Z" fill="white"/>
<path d="M124.076 30.9837H125.664V29.5246L127.824 28V30.9837H129.714V32.9674H127.824V36.5573C127.824 38.2297 128.047 38.492 129.714 38.492V40.5738H129.412C126.538 40.5738 125.664 39.6232 125.664 36.5742V32.9674H124.076L124.076 30.9837Z" fill="white"/>
<path d="M130.287 35.7872C130.287 33.0002 132.414 30.787 135.098 30.787C137.766 30.787 139.91 33.0002 139.91 35.7872C139.91 38.5576 137.766 40.7709 135.098 40.7709C132.414 40.7709 130.287 38.5576 130.287 35.7872ZM137.798 35.7872C137.798 34.1807 136.606 32.8691 135.098 32.8691C133.557 32.8691 132.398 34.1807 132.398 35.7872C132.398 37.3774 133.557 38.6888 135.098 38.6888C136.606 38.6888 137.798 37.3774 137.798 35.7872Z" fill="white"/>
<path d="M143.135 30.9837V32.41C143.564 31.459 144.342 30.9837 145.517 30.9837C146.184 30.9837 146.739 31.1477 147.153 31.3934L146.343 33.4918C146.025 33.2788 145.66 33.1148 145.056 33.1148C143.818 33.1148 143.151 33.8035 143.151 35.4589V40.5738H141.007V30.9837H143.135Z" fill="white"/>
<path d="M147.392 35.8034C147.392 33.0002 149.504 30.787 152.22 30.787C154.983 30.787 157 32.8853 157 35.7216V36.5573H149.441C149.727 37.9021 150.775 38.8199 152.3 38.8199C153.491 38.8199 154.428 38.1479 154.872 37.1313L156.635 38.1803C155.825 39.7219 154.364 40.7705 152.3 40.7705C149.377 40.7705 147.392 38.5738 147.392 35.8034ZM149.552 34.7051H154.825C154.507 33.4265 153.554 32.7379 152.22 32.7379C150.933 32.7379 149.933 33.5411 149.552 34.7051Z" fill="white"/>
<path d="M58.1583 20.5091H55.3861L54.8754 21.9182H54L56.298 15.6182H57.2555L59.5443 21.9182H58.6689L58.1583 20.5091ZM57.9212 19.8364L56.7722 16.6364L55.6232 19.8364H57.9212Z" fill="white"/>
<path d="M61.859 21.1545L63.4092 16.9364H64.2938L62.3332 21.9182H61.3666L59.406 16.9364H60.2997L61.859 21.1545Z" fill="white"/>
<path d="M64.8915 19.4091C64.8915 18.9 64.9948 18.4545 65.2015 18.0727C65.4082 17.6848 65.6909 17.3848 66.0496 17.1727C66.4144 16.9606 66.8186 16.8545 67.2624 16.8545C67.7001 16.8545 68.0801 16.9485 68.4023 17.1364C68.7245 17.3242 68.9646 17.5606 69.1227 17.8455V16.9364H69.9617V21.9182H69.1227V20.9909C68.9586 21.2818 68.7124 21.5242 68.3841 21.7182C68.0619 21.9061 67.6849 22 67.2533 22C66.8095 22 66.4083 21.8909 66.0496 21.6727C65.6909 21.4545 65.4082 21.1485 65.2015 20.7545C64.9948 20.3606 64.8915 19.9121 64.8915 19.4091ZM69.1227 19.4182C69.1227 19.0424 69.0467 18.7152 68.8947 18.4364C68.7428 18.1576 68.5361 17.9455 68.2746 17.8C68.0193 17.6485 67.7366 17.5727 67.4266 17.5727C67.1165 17.5727 66.8338 17.6455 66.5785 17.7909C66.3232 17.9364 66.1195 18.1485 65.9675 18.4273C65.8156 18.7061 65.7396 19.0333 65.7396 19.4091C65.7396 19.7909 65.8156 20.1242 65.9675 20.4091C66.1195 20.6879 66.3232 20.903 66.5785 21.0545C66.8338 21.2 67.1165 21.2727 67.4266 21.2727C67.7366 21.2727 68.0193 21.2 68.2746 21.0545C68.5361 20.903 68.7428 20.6879 68.8947 20.4091C69.0467 20.1242 69.1227 19.7939 69.1227 19.4182Z" fill="white"/>
<path d="M71.6102 16.1273C71.4521 16.1273 71.3184 16.0727 71.209 15.9636C71.0995 15.8545 71.0448 15.7212 71.0448 15.5636C71.0448 15.4061 71.0995 15.2727 71.209 15.1636C71.3184 15.0545 71.4521 15 71.6102 15C71.7622 15 71.8899 15.0545 71.9932 15.1636C72.1026 15.2727 72.1573 15.4061 72.1573 15.5636C72.1573 15.7212 72.1026 15.8545 71.9932 15.9636C71.8899 16.0727 71.7622 16.1273 71.6102 16.1273ZM72.0114 16.9364V21.9182H71.1816V16.9364H72.0114Z" fill="white"/>
<path d="M74.0732 15.1909V21.9182H73.2434V15.1909H74.0732Z" fill="white"/>
<path d="M75.1774 19.4091C75.1774 18.9 75.2808 18.4545 75.4875 18.0727C75.6942 17.6848 75.9769 17.3848 76.3356 17.1727C76.7003 16.9606 77.1046 16.8545 77.5484 16.8545C77.9861 16.8545 78.366 16.9485 78.6883 17.1364C79.0105 17.3242 79.2506 17.5606 79.4086 17.8455V16.9364H80.2476V21.9182H79.4086V20.9909C79.2445 21.2818 78.9983 21.5242 78.67 21.7182C78.3478 21.9061 77.9709 22 77.5393 22C77.0955 22 76.6942 21.8909 76.3356 21.6727C75.9769 21.4545 75.6942 21.1485 75.4875 20.7545C75.2808 20.3606 75.1774 19.9121 75.1774 19.4091ZM79.4086 19.4182C79.4086 19.0424 79.3327 18.7152 79.1807 18.4364C79.0287 18.1576 78.822 17.9455 78.5606 17.8C78.3053 17.6485 78.0226 17.5727 77.7125 17.5727C77.4025 17.5727 77.1198 17.6455 76.8645 17.7909C76.6091 17.9364 76.4055 18.1485 76.2535 18.4273C76.1015 18.7061 76.0255 19.0333 76.0255 19.4091C76.0255 19.7909 76.1015 20.1242 76.2535 20.4091C76.4055 20.6879 76.6091 20.903 76.8645 21.0545C77.1198 21.2 77.4025 21.2727 77.7125 21.2727C78.0226 21.2727 78.3053 21.2 78.5606 21.0545C78.822 20.903 79.0287 20.6879 79.1807 20.4091C79.3327 20.1242 79.4086 19.7939 79.4086 19.4182Z" fill="white"/>
<path d="M82.5709 17.8636C82.7412 17.5667 82.9904 17.3242 83.3187 17.1364C83.647 16.9485 84.0209 16.8545 84.4403 16.8545C84.8902 16.8545 85.2945 16.9606 85.6532 17.1727C86.0118 17.3848 86.2945 17.6848 86.5012 18.0727C86.7079 18.4545 86.8113 18.9 86.8113 19.4091C86.8113 19.9121 86.7079 20.3606 86.5012 20.7545C86.2945 21.1485 86.0088 21.4545 85.644 21.6727C85.2854 21.8909 84.8841 22 84.4403 22C84.0087 22 83.6287 21.9061 83.3005 21.7182C82.9783 21.5303 82.7351 21.2909 82.5709 21V21.9182H81.7411V15.1909H82.5709V17.8636ZM85.9632 19.4091C85.9632 19.0333 85.8872 18.7061 85.7352 18.4273C85.5833 18.1485 85.3766 17.9364 85.1151 17.7909C84.8598 17.6455 84.5771 17.5727 84.2671 17.5727C83.9631 17.5727 83.6804 17.6485 83.419 17.8C83.1637 17.9455 82.957 18.1606 82.7989 18.4455C82.6469 18.7242 82.5709 19.0485 82.5709 19.4182C82.5709 19.7939 82.6469 20.1242 82.7989 20.4091C82.957 20.6879 83.1637 20.903 83.419 21.0545C83.6804 21.2 83.9631 21.2727 84.2671 21.2727C84.5771 21.2727 84.8598 21.2 85.1151 21.0545C85.3766 20.903 85.5833 20.6879 85.7352 20.4091C85.8872 20.1242 85.9632 19.7909 85.9632 19.4091Z" fill="white"/>
<path d="M88.7334 15.1909V21.9182H87.9036V15.1909H88.7334Z" fill="white"/>
<path d="M94.7984 19.2364C94.7984 19.3939 94.7893 19.5606 94.771 19.7364H90.7769C90.8073 20.2273 90.9745 20.6121 91.2784 20.8909C91.5885 21.1636 91.9624 21.3 92.4001 21.3C92.7588 21.3 93.0566 21.2182 93.2937 21.0545C93.5369 20.8848 93.7071 20.6606 93.8044 20.3818H94.6981C94.5643 20.8606 94.2968 21.2515 93.8956 21.5545C93.4944 21.8515 92.9959 22 92.4001 22C91.9259 22 91.5003 21.8939 91.1234 21.6818C90.7526 21.4697 90.4608 21.1697 90.248 20.7818C90.0352 20.3879 89.9288 19.9333 89.9288 19.4182C89.9288 18.903 90.0322 18.4515 90.2389 18.0636C90.4456 17.6758 90.7343 17.3788 91.1052 17.1727C91.4821 16.9606 91.9137 16.8545 92.4001 16.8545C92.8743 16.8545 93.2937 16.9576 93.6585 17.1636C94.0233 17.3697 94.3029 17.6545 94.4974 18.0182C94.6981 18.3758 94.7984 18.7818 94.7984 19.2364ZM93.9412 19.0636C93.9412 18.7485 93.8713 18.4788 93.7315 18.2545C93.5916 18.0242 93.4001 17.8515 93.157 17.7364C92.9199 17.6152 92.6554 17.5545 92.3636 17.5545C91.9441 17.5545 91.5854 17.6879 91.2876 17.9545C90.9958 18.2212 90.8286 18.5909 90.786 19.0636H93.9412Z" fill="white"/>
<path d="M100.687 22C100.219 22 99.793 21.8939 99.41 21.6818C99.0331 21.4697 98.7352 21.1697 98.5164 20.7818C98.3036 20.3879 98.1972 19.9333 98.1972 19.4182C98.1972 18.9091 98.3066 18.4606 98.5255 18.0727C98.7504 17.6788 99.0544 17.3788 99.4374 17.1727C99.8204 16.9606 100.249 16.8545 100.723 16.8545C101.197 16.8545 101.626 16.9606 102.009 17.1727C102.392 17.3788 102.693 17.6758 102.912 18.0636C103.137 18.4515 103.249 18.903 103.249 19.4182C103.249 19.9333 103.134 20.3879 102.903 20.7818C102.678 21.1697 102.371 21.4697 101.982 21.6818C101.593 21.8939 101.161 22 100.687 22ZM100.687 21.2727C100.985 21.2727 101.264 21.203 101.526 21.0636C101.787 20.9242 101.997 20.7152 102.155 20.4364C102.319 20.1576 102.401 19.8182 102.401 19.4182C102.401 19.0182 102.322 18.6788 102.164 18.4C102.006 18.1212 101.799 17.9152 101.544 17.7818C101.289 17.6424 101.012 17.5727 100.714 17.5727C100.41 17.5727 100.13 17.6424 99.8751 17.7818C99.6258 17.9152 99.4252 18.1212 99.2732 18.4C99.1213 18.6788 99.0453 19.0182 99.0453 19.4182C99.0453 19.8242 99.1182 20.1667 99.2641 20.4455C99.4161 20.7242 99.6167 20.9333 99.866 21.0727C100.115 21.2061 100.389 21.2727 100.687 21.2727Z" fill="white"/>
<path d="M106.957 16.8455C107.565 16.8455 108.058 17.0303 108.435 17.4C108.812 17.7636 109 18.2909 109 18.9818V21.9182H108.179V19.1C108.179 18.603 108.055 18.2242 107.805 17.9636C107.556 17.697 107.216 17.5636 106.784 17.5636C106.346 17.5636 105.997 17.7 105.735 17.9727C105.48 18.2455 105.352 18.6424 105.352 19.1636V21.9182H104.523V16.9364H105.352V17.6455C105.517 17.3909 105.738 17.1939 106.018 17.0545C106.304 16.9152 106.617 16.8455 106.957 16.8455Z" fill="white"/>
<defs>
<radialGradient id="paint0_angular_413_458" cx="0" cy="0" r="1" gradientUnits="userSpaceOnUse" gradientTransform="translate(31.5 29.5) rotate(88.8309) scale(15.5032)">
<stop offset="0.000415415" stop-color="#F4605E"/>
<stop offset="0.0642377" stop-color="#E94B80"/>
<stop offset="0.128396" stop-color="#DE33A4"/>
<stop offset="0.186654" stop-color="#D41AC8"/>
<stop offset="0.250949" stop-color="#CB06E5"/>
<stop offset="0.281719" stop-color="#C902EC"/>
<stop offset="0.316858" stop-color="#CB04E5"/>
<stop offset="0.371347" stop-color="#D108D3"/>
<stop offset="0.43351" stop-color="#D80DBA"/>
<stop offset="0.504024" stop-color="#E1139E"/>
<stop offset="0.59576" stop-color="#EC1E7B"/>
<stop offset="0.673288" stop-color="#F22A65"/>
<stop offset="0.713795" stop-color="#F5355B"/>
<stop offset="0.754495" stop-color="#F74452"/>
<stop offset="0.818581" stop-color="#F75651"/>
<stop offset="0.878478" stop-color="#F76051"/>
<stop offset="0.938046" stop-color="#F76551"/>
</radialGradient>
</defs>
</svg>
