<svg width="125" height="19" viewBox="0 0 125 19" fill="none" xmlns="http://www.w3.org/2000/svg">
<path d="M8.525 18L0.875 0.499999H4.4L11.225 16.325H9.2L16.1 0.499999H19.35L11.725 18H8.525ZM20.7211 18V0.499999H23.9711V18H20.7211ZM31.2045 7.775H39.9045V10.45H31.2045V7.775ZM31.4545 15.275H41.3295V18H28.2045V0.499999H40.9795V3.225H31.4545V15.275ZM48.3334 18L42.5334 0.499999H45.9084L51.0834 16.325H49.4084L54.7834 0.499999H57.7834L63.0084 16.325H61.3834L66.6834 0.499999H69.7834L63.9834 18H60.5334L55.7584 3.725H56.6584L51.8084 18H48.3334ZM71.9311 18V0.499999H80.1311C82.2311 0.499999 83.8311 0.916666 84.9311 1.75C86.0311 2.56667 86.5811 3.66667 86.5811 5.05C86.5811 5.98333 86.3644 6.78333 85.9311 7.45C85.4977 8.1 84.9144 8.60833 84.1811 8.975C83.4644 9.325 82.6811 9.5 81.8311 9.5L82.2811 8.6C83.2644 8.6 84.1477 8.78333 84.9311 9.15C85.7144 9.5 86.3311 10.0167 86.7811 10.7C87.2477 11.3833 87.4811 12.2333 87.4811 13.25C87.4811 14.75 86.9061 15.9167 85.7561 16.75C84.6061 17.5833 82.8977 18 80.6311 18H71.9311ZM75.1811 15.45H80.4311C81.6477 15.45 82.5811 15.25 83.2311 14.85C83.8811 14.45 84.2061 13.8083 84.2061 12.925C84.2061 12.0583 83.8811 11.425 83.2311 11.025C82.5811 10.6083 81.6477 10.4 80.4311 10.4H74.9311V7.875H79.7811C80.9144 7.875 81.7811 7.675 82.3811 7.275C82.9977 6.875 83.3061 6.275 83.3061 5.475C83.3061 4.65833 82.9977 4.05 82.3811 3.65C81.7811 3.25 80.9144 3.05 79.7811 3.05H75.1811V15.45ZM97.9746 18.25C95.5746 18.25 93.6913 17.575 92.3246 16.225C90.9746 14.875 90.2996 12.925 90.2996 10.375V0.499999H93.5496V10.25C93.5496 12.05 93.9329 13.3583 94.6996 14.175C95.4829 14.9917 96.5829 15.4 97.9996 15.4C99.4163 15.4 100.508 14.9917 101.275 14.175C102.041 13.3583 102.425 12.05 102.425 10.25V0.499999H105.625V10.375C105.625 12.925 104.941 14.875 103.575 16.225C102.225 17.575 100.358 18.25 97.9746 18.25ZM117.851 18.25C116.485 18.25 115.226 18.0333 114.076 17.6C112.943 17.15 111.951 16.525 111.101 15.725C110.251 14.9083 109.593 13.95 109.126 12.85C108.66 11.75 108.426 10.55 108.426 9.25C108.426 7.95 108.66 6.75 109.126 5.65C109.593 4.55 110.251 3.6 111.101 2.8C111.968 1.98333 112.976 1.35833 114.126 0.924999C115.276 0.474999 116.535 0.249999 117.901 0.249999C119.385 0.249999 120.718 0.491666 121.901 0.974999C123.101 1.45833 124.11 2.16667 124.926 3.1L122.876 5.1C122.193 4.41667 121.451 3.91667 120.651 3.6C119.868 3.26667 119.001 3.1 118.051 3.1C117.135 3.1 116.285 3.25 115.501 3.55C114.718 3.85 114.043 4.275 113.476 4.825C112.91 5.375 112.468 6.025 112.151 6.775C111.851 7.525 111.701 8.35 111.701 9.25C111.701 10.1333 111.851 10.95 112.151 11.7C112.468 12.45 112.91 13.1083 113.476 13.675C114.043 14.225 114.71 14.65 115.476 14.95C116.243 15.25 117.093 15.4 118.026 15.4C118.893 15.4 119.726 15.2667 120.526 15C121.343 14.7167 122.118 14.25 122.851 13.6L124.701 16.025C123.785 16.7583 122.718 17.3167 121.501 17.7C120.301 18.0667 119.085 18.25 117.851 18.25ZM121.626 15.6V9.05H124.701V16.025L121.626 15.6Z" fill="white"/>
</svg>
